<svg xmlns="http://www.w3.org/2000/svg" viewBox="0 0 192 192" fill="none">
  <defs>
    <linearGradient id="bg192" x1="20" y1="18" x2="174" y2="172" gradientUnits="userSpaceOnUse">
      <stop stop-color="#22d3ee"/>
      <stop offset="1" stop-color="#6366f1"/>
    </linearGradient>
    <linearGradient id="panel192" x1="48" y1="48" x2="144" y2="144" gradientUnits="userSpaceOnUse">
      <stop stop-color="#0ea5e9" stop-opacity=".2"/>
      <stop offset="1" stop-color="#6366f1" stop-opacity=".15"/>
    </linearGradient>
  </defs>
  <rect x="8" y="8" width="176" height="176" rx="32" fill="#111827" stroke="url(#bg192)" stroke-width="8"/>
  <rect x="32" y="40" width="128" height="112" rx="16" fill="url(#panel192)" stroke="rgba(255,255,255,0.16)" stroke-width="3"/>
  <rect x="40" y="48" width="112" height="20" rx="8" fill="rgba(255,255,255,0.1)" />
  <circle cx="56" cy="58" r="4" fill="#22d3ee"/>
  <circle cx="70" cy="58" r="4" fill="#f59e0b"/>
  <circle cx="84" cy="58" r="4" fill="#10b981"/>
  <path d="M54 88h44M54 106h26" stroke="#e2e8f0" stroke-width="6" stroke-linecap="round" opacity=".9"/>
  <path d="M54 132h56" stroke="#e2e8f0" stroke-width="6" stroke-linecap="round" opacity=".8"/>
  <rect x="108" y="90" width="36" height="38" rx="10" fill="rgba(34,211,238,0.18)" stroke="#22d3ee" stroke-width="4"/>
  <path d="M116 110.5 128 123l14-22" stroke="#22d3ee" stroke-width="6" stroke-linecap="round" stroke-linejoin="round"/>
  <path d="M132 150c-18 10-54 10-72 0" stroke="rgba(255,255,255,0.18)" stroke-width="6" stroke-linecap="round" />
</svg>
